<svg xmlns="http://www.w3.org/2000/svg" height="24" viewBox="0 96 960 960" width="24"><path d="M488.692 843.692q10.579-1.1 16.79-7.104 6.21-6.005 6.21-14.482 0-8.491-7.254-14.645-7.255-6.153-17.207-5.153-41 3-88.616-22.577Q351 754.154 339 687.154q-2-11.462-8.154-16.654t-13.308-5.192q-9.846 0-15.884 6.784-6.039 6.785-3.808 19.677Q313.308 775.077 374.769 811q61.462 35.923 113.923 32.692ZM479.749 972q-132.826 0-221.288-91.036Q170 789.927 170 651.833q0-96.987 78-212.91t232-248.616Q634 323 712 438.923t78 212.91q0 138.094-88.712 229.131Q612.575 972 479.749 972Zm.251-66q105 0 174.5-72.257T724 651.819Q724 577 662 482q-62-95-182-204-120 109-182 204t-62 169.819q0 109.667 69.5 181.924T480 906Zm0-324.846Z"/></svg>