<svg xmlns="http://www.w3.org/2000/svg" height="24" viewBox="0 96 960 960" width="24"><path d="M480 968q-78.466 0-133.233-54.767Q292 858.466 292 780q0-46.385 21.909-87.702 21.91-41.317 60.091-66.76V290q0-44.68 30.694-75.34Q435.389 184 480.118 184q44.728 0 75.305 30.66Q586 245.32 586 290v335.538q38.181 25.443 60.091 66.76Q668 733.615 668 780q0 78.466-54.767 133.233Q558.466 968 480 968Zm-40-426.615h80v-68h-40v-38.77h40v-65.23h-40v-36.77h40V290q0-17-11.5-28.5T480 250q-17 0-28.5 11.5T440 290v251.385Z"/></svg>