<svg xmlns="http://www.w3.org/2000/svg" height="24" viewBox="0 96 960 960" width="24"><path d="M12.461 690V462h66v228h-66Zm118.769 82V380h66.001v392H131.23Zm750.309-82V462h66v228h-66Zm-118.77 82V380h66.001v392h-66.001ZM340.615 928q-38.846 0-64.731-25.884Q250 876.231 250 837.385v-522.77q0-38.846 25.884-64.731Q301.769 224 340.615 224h278.77q38.846 0 64.731 25.884Q710 275.769 710 314.615v522.77q0 38.846-25.884 64.731Q658.231 928 619.385 928h-278.77Zm0-66h278.77q10.769 0 17.692-6.923T644 837.385v-522.77q0-10.769-6.923-17.692T619.385 290h-278.77q-10.769 0-17.692 6.923T316 314.615v522.77q0 10.769 6.923 17.692T340.615 862ZM316 862V290v572Z"/></svg>